<?xml version="1.0" encoding="UTF-8" standalone="yes"?>
<svg xmlns="http://www.w3.org/2000/svg" width="1687" height="1152">
<polygon points="200 952 1487 952 1487 200 200 200 "
 stroke="black" stroke-width="2" fill="none" stroke-dasharray="20 2"/>
<polygon points="200 952 547 427 1055 952 "
 stroke="black" stroke-width="2" fill="#d0f0d0"/>
<polygon points="547 427 999 239 1055 952 "
 stroke="black" stroke-width="2" fill="#d0f0d0"/>
<polygon points="999 239 1487 200 1055 952 "
 stroke="black" stroke-width="2" fill="#d0f0d0"/>
<text x="373" y="689" font-size="60" text-anchor="middle" dominant-baseline="middle" transform="rotate(-56.472999 373 689)">6.30</text>
<text x="627" y="952" font-size="60" text-anchor="middle" dominant-baseline="middle" transform="rotate(-0.000000 627 952)">8.55</text>
<text x="801" y="689" font-size="60" text-anchor="middle" dominant-baseline="middle" transform="rotate(46.007468 801 689)">7.30</text>
<text x="773" y="333" font-size="60" text-anchor="middle" dominant-baseline="middle" transform="rotate(-22.567027 773 333)">4.89</text>
<text x="1243" y="219" font-size="60" text-anchor="middle" dominant-baseline="middle" transform="rotate(-4.621481 1243 219)">4.90</text>
<text x="1027" y="595" font-size="60" text-anchor="middle" dominant-baseline="middle" transform="rotate(85.550153 1027 595)">7.15</text>
<text x="1271" y="576" font-size="60" text-anchor="middle" dominant-baseline="middle" transform="rotate(-60.081326 1271 576)">8.68</text>
<text x="200" y="952" font-size="60" text-anchor="middle" dominant-baseline="middle">a</text>
<text x="547" y="427" font-size="60" text-anchor="middle" dominant-baseline="middle">b</text>
<text x="999" y="239" font-size="60" text-anchor="middle" dominant-baseline="middle">c</text>
<text x="1487" y="200" font-size="60" text-anchor="middle" dominant-baseline="middle">d</text>
<text x="1055" y="952" font-size="60" text-anchor="middle" dominant-baseline="middle">e</text>
<text x="843" y="952" font-size="60" text-anchor="middle" dominant-baseline="middle" transform="rotate(-0.000000 843 952)">12.88</text>
<text x="200" y="576" font-size="60" text-anchor="middle" dominant-baseline="middle" transform="rotate(-90.000000 200 576)">7.52</text>
</svg>
