<?xml version="1.0" encoding="UTF-8" standalone="yes"?>
<svg xmlns="http://www.w3.org/2000/svg" width="1687" height="1152">
<polygon points="200 952 1488 952 1488 200 200 200 "
 stroke="black" stroke-width="2" fill="none" stroke-dasharray="20 2"/>
<polygon points="200 952 548 427 1055 952 "
 stroke="black" stroke-width="2" fill="#d0f0d0"/>
<polygon points="548 427 1000 239 1055 952 "
 stroke="black" stroke-width="2" fill="#d0f0d0"/>
<polygon points="1000 239 1488 200 1055 952 "
 stroke="black" stroke-width="2" fill="#d0f0d0"/>
<text x="374" y="690" font-size="60" text-anchor="middle" dominant-baseline="middle" transform="rotate(-56.472999 374 690)">6.30</text>
<text x="628" y="952" font-size="60" text-anchor="middle" dominant-baseline="middle" transform="rotate(-0.000000 628 952)">8.55</text>
<text x="801" y="690" font-size="60" text-anchor="middle" dominant-baseline="middle" transform="rotate(46.007468 801 690)">7.30</text>
<text x="774" y="333" font-size="60" text-anchor="middle" dominant-baseline="middle" transform="rotate(-22.567027 774 333)">4.89</text>
<text x="1244" y="220" font-size="60" text-anchor="middle" dominant-baseline="middle" transform="rotate(-4.621481 1244 220)">4.90</text>
<text x="1027" y="596" font-size="60" text-anchor="middle" dominant-baseline="middle" transform="rotate(85.550153 1027 596)">7.15</text>
<text x="1271" y="576" font-size="60" text-anchor="middle" dominant-baseline="middle" transform="rotate(-60.081326 1271 576)">8.68</text>
<text x="200" y="952" font-size="60" text-anchor="middle" dominant-baseline="middle">a</text>
<text x="548" y="427" font-size="60" text-anchor="middle" dominant-baseline="middle">b</text>
<text x="1000" y="239" font-size="60" text-anchor="middle" dominant-baseline="middle">c</text>
<text x="1488" y="200" font-size="60" text-anchor="middle" dominant-baseline="middle">d</text>
<text x="1055" y="952" font-size="60" text-anchor="middle" dominant-baseline="middle">e</text>
<text x="844" y="952" font-size="60" text-anchor="middle" dominant-baseline="middle" transform="rotate(-0.000000 844 952)">12.88</text>
<text x="200" y="576" font-size="60" text-anchor="middle" dominant-baseline="middle" transform="rotate(-90.000000 200 576)">7.52</text>
</svg>
